<svg xmlns="http://www.w3.org/2000/svg" width="18" height="18" viewBox="0 0 18 18" fill="none">
  <path d="M 4 14 L 6 14 L 6 9 L 4 9 L 4 14 L 4 14 M 12 14 L 14 14 L 14 4 L 12 4 L 12 14 L 12 14 M 8 14 L 10 14 L 10 11 L 8 11 L 8 14 L 8 14 M 8 9 L 10 9 L 10 7 L 8 7 L 8 9 L 8 9 M 2 18 C 1.45 18 0.979 17.804 0.587 17.413 C 0.196 17.021 0 16.55 0 16 L 0 2 C 0 1.45 0.196 0.979 0.587 0.587 C 0.979 0.196 1.45 0 2 0 L 16 0 C 16.55 0 17.021 0.196 17.413 0.587 C 17.804 0.979 18 1.45 18 2 L 18 16 C 18 16.55 17.804 17.021 17.413 17.413 C 17.021 17.804 16.55 18 16 18 L 2 18 L 2 18 M 2 16 L 16 16 L 16 16 L 16 16 L 16 2 L 16 2 L 16 2 L 2 2 L 2 2 L 2 2 L 2 16 L 2 16 L 2 16 L 2 16 M 2 2 L 2 2 L 2 2 L 2 2 L 2 16 L 2 16 L 2 16 L 2 16 L 2 16 L 2 16 L 2 2 L 2 2 L 2 2 L 2 2" fill="currentColor" fill-rule="nonzero"></path>
</svg>