<svg xmlns="http://www.w3.org/2000/svg" width="20" height="20" viewBox="0 0 20 20" fill="none">
  <path d="M 8.6 14.6 L 15.65 7.55 L 14.25 6.15 L 8.6 11.8 L 5.75 8.95 L 4.35 10.35 L 8.6 14.6 L 8.6 14.6 M 10 20 C 8.617 20 7.317 19.737 6.1 19.212 C 4.883 18.688 3.825 17.975 2.925 17.075 C 2.025 16.175 1.313 15.117 0.788 13.9 C 0.263 12.683 0 11.383 0 10 C 0 8.617 0.263 7.317 0.788 6.1 C 1.313 4.883 2.025 3.825 2.925 2.925 C 3.825 2.025 4.883 1.313 6.1 0.788 C 7.317 0.263 8.617 0 10 0 C 11.383 0 12.683 0.263 13.9 0.788 C 15.117 1.313 16.175 2.025 17.075 2.925 C 17.975 3.825 18.688 4.883 19.212 6.1 C 19.737 7.317 20 8.617 20 10 C 20 11.383 19.737 12.683 19.212 13.9 C 18.688 15.117 17.975 16.175 17.075 17.075 C 16.175 17.975 15.117 18.688 13.9 19.212 C 12.683 19.737 11.383 20 10 20 L 10 20 M 10 18 C 12.233 18 14.125 17.225 15.675 15.675 C 17.225 14.125 18 12.233 18 10 C 18 7.767 17.225 5.875 15.675 4.325 C 14.125 2.775 12.233 2 10 2 C 7.767 2 5.875 2.775 4.325 4.325 C 2.775 5.875 2 7.767 2 10 C 2 12.233 2.775 14.125 4.325 15.675 C 5.875 17.225 7.767 18 10 18 L 10 18 M 10 10 L 10 10 L 10 10 L 10 10 L 10 10 L 10 10 L 10 10 L 10 10 L 10 10 L 10 10" fill="currentColor" fill-rule="nonzero"></path>
</svg>