<svg xmlns="http://www.w3.org/2000/svg" width="27.086" height="27" viewBox="0 0 27.086 27" fill="none">
  <path d="M 3.043 27 C 1.768 27 0.862 26.431 0.324 25.294 C -0.213 24.156 -0.082 23.1 0.718 22.125 L 9.043 12 L 9.043 3 L 7.543 3 C 7.118 3 6.762 2.856 6.474 2.569 C 6.187 2.281 6.043 1.925 6.043 1.5 C 6.043 1.075 6.187 0.719 6.474 0.431 C 6.762 0.144 7.118 0 7.543 0 L 19.543 0 C 19.968 0 20.324 0.144 20.612 0.431 C 20.899 0.719 21.043 1.075 21.043 1.5 C 21.043 1.925 20.899 2.281 20.612 2.569 C 20.324 2.856 19.968 3 19.543 3 L 18.043 3 L 18.043 12 L 26.368 22.125 C 27.168 23.1 27.299 24.156 26.762 25.294 C 26.224 26.431 25.318 27 24.043 27 L 3.043 27 L 3.043 27 M 3.043 24 L 24.043 24 L 15.043 13.05 L 15.043 3 L 12.043 3 L 12.043 13.05 L 3.043 24 L 3.043 24 M 13.543 13.5 L 13.543 13.5 L 13.543 13.5 L 13.543 13.5 L 13.543 13.5 L 13.543 13.5 L 13.543 13.5 L 13.543 13.5" fill="currentColor" fill-rule="nonzero"></path>
</svg>